<?xml version="1.0" encoding="utf-8"?>
<!-- Generator: Adobe Illustrator 26.0.0, SVG Export Plug-In . SVG Version: 6.00 Build 0)  -->
<svg version="1.1" id="Capa_1" xmlns="http://www.w3.org/2000/svg" xmlns:xlink="http://www.w3.org/1999/xlink" x="0px" y="0px"
	 viewBox="0 0 841.89 595.28" style="enable-background:new 0 0 841.89 595.28;" xml:space="preserve">
<style type="text/css">
	.st0{fill:#2A4798;}
</style>
<path class="st0" d="M316.55,346.17c0.42-4.29,0.72-7.88,0.91-10.77c0.19-2.89,0.38-6.73,0.57-11.53c0.19-4.79,0.29-7.97,0.29-9.53
	l-0.02-2.19c3.92,0.03,8.66,0.05,14.23,0.05c5.13,0,9.66-0.02,13.58-0.05l-0.05,0.82c-0.02,0.2-0.06,0.92-0.12,2.16l-0.15,2.71
	c-0.03,0.58-0.05,1.17-0.05,1.76c-3.21-0.13-5.9-0.2-8.08-0.2c-2.39,0-4.01,0-4.85,0.01c-0.84,0.01-2.15,0.05-3.93,0.11l-0.3,5.73
	c1.96,0.05,4.25,0.07,6.86,0.07c0.93,0,3.41-0.06,7.43-0.17c-0.17,2.13-0.32,4.66-0.47,7.6c-2.87-0.03-5.08-0.05-6.63-0.05
	c-2.29,0-4.86,0.06-7.7,0.17l-0.3,6.06h2.86c0.85,0,2.6-0.02,5.26-0.07l5.16-0.12c0.76-0.02,2.04-0.08,3.84-0.2
	c-0.2,2.46-0.37,5-0.5,7.63c-4.05-0.03-8.5-0.05-13.34-0.05l-10.97,0.02L316.55,346.17z"/>
<path class="st0" d="M350.17,346.17c0.32-2.92,0.57-5.56,0.75-7.9c0.18-2.34,0.34-5.06,0.47-8.15c0.13-3.09,0.23-6.35,0.3-9.78
	c0.07-3.43,0.1-6.16,0.1-8.19c2.08,0.05,3.75,0.07,5.03,0.07c1.33,0,2.95-0.04,4.86-0.11c1.91-0.07,3.77-0.11,5.58-0.11
	c2.13,0,4.02,0.08,5.68,0.25c1.25,0.12,2.38,0.36,3.4,0.72c1.02,0.37,1.88,0.81,2.58,1.33c0.7,0.52,1.28,1.11,1.74,1.76
	c0.46,0.65,0.83,1.41,1.08,2.28c0.26,0.87,0.39,1.81,0.39,2.8c0,1.11-0.14,2.16-0.42,3.13c-0.28,0.97-0.73,1.89-1.33,2.74
	c-0.61,0.86-1.37,1.6-2.29,2.22s-2.21,1.26-3.88,1.91l1.3,3.17c0.37,0.88,0.76,1.78,1.17,2.69l3.34,7.3
	c0.15,0.32,0.42,0.94,0.8,1.87c-2.74-0.03-4.58-0.05-5.53-0.05c-1.2,0-3.16,0.02-5.88,0.05c-0.27-0.86-0.75-2.47-1.45-4.81
	c-0.28-0.98-0.52-1.74-0.72-2.27c-0.4-1.18-0.99-2.83-1.77-4.96l-2.57-7.05c0.9,0.17,1.78,0.25,2.64,0.25c1.21,0,2.31-0.18,3.3-0.55
	c0.99-0.37,1.74-0.93,2.24-1.7c0.51-0.76,0.76-1.57,0.76-2.42c0-0.71-0.19-1.34-0.57-1.88c-0.38-0.54-0.98-0.94-1.81-1.21
	c-0.82-0.27-2.09-0.4-3.8-0.4c-0.58,0-1.18,0.01-1.81,0.04s-1.35,0.05-2.18,0.06c-0.21,3.41-0.4,7.56-0.57,12.46
	c-0.16,4.9-0.27,9.71-0.32,14.43c-2.78-0.03-4.58-0.05-5.42-0.05C354.42,346.12,352.68,346.14,350.17,346.17z"/>
<path class="st0" d="M395.05,346.17l-0.92-3.04l-6.09-17.52l-4.79-13.46c2.26,0.03,4.27,0.05,6.03,0.05c1.08,0,2.77-0.02,5.08-0.05
	c0.38,1.48,0.68,2.6,0.9,3.37c0.3,1,0.87,2.8,1.7,5.41l3.67,11.8c0.37,1.23,0.82,2.84,1.35,4.81l1.15-2.87l8.69-19.06
	c0.15-0.35,0.32-0.75,0.51-1.2c0.19-0.45,0.49-1.21,0.91-2.27c2.41,0.03,4.35,0.05,5.81,0.05c0.91,0,2.73-0.02,5.44-0.05
	c-1.69,3.16-3.61,6.85-5.76,11.07l-8.6,17.05c-0.83,1.66-1.76,3.63-2.79,5.91c-2.79-0.03-4.79-0.05-5.98-0.05
	C400.24,346.12,398.14,346.14,395.05,346.17z"/>
<path class="st0" d="M425.83,346.17c0.96-13.34,1.44-23.61,1.44-30.81l-0.02-3.22c2.91,0.03,4.86,0.05,5.84,0.05
	c0.45,0,2.24-0.02,5.36-0.05c-0.3,3.74-0.54,7.28-0.73,10.62c-0.23,4.65-0.4,9-0.5,13.05c-0.1,4.05-0.15,7.5-0.15,10.36l-5.11-0.05
	C430.96,346.12,428.92,346.14,425.83,346.17z"/>
<path class="st0" d="M487.78,299.36c0.05,1.37,0.12,2.88,0.22,4.52l0.26,4.26c-2.92-0.7-5.28-1.17-7.09-1.42
	c-1.81-0.25-3.48-0.37-5.03-0.37c-3.37,0-6.39,0.67-9.09,2.02c-2.69,1.35-4.81,3.3-6.36,5.87c-1.55,2.57-2.32,5.41-2.32,8.53
	c0,2.84,0.65,5.28,1.94,7.31c1.3,2.03,3.05,3.6,5.25,4.71c2.21,1.11,4.93,1.66,8.17,1.66c1.77,0,3.7-0.14,5.78-0.43
	c2.08-0.29,4.69-0.84,7.83-1.66c-0.3,1.47-0.66,3.51-1.08,6.13c-0.42,2.62-0.71,4.65-0.86,6.09c-5.33,0.8-10.1,1.2-14.28,1.2
	c-4.04,0-7.8-0.5-11.27-1.51c-3.48-1.01-6.67-2.67-9.57-4.97c-2.9-2.31-4.98-5.02-6.23-8.13c-1.25-3.12-1.87-6.61-1.87-10.47
	c0-4.51,0.84-8.57,2.52-12.17c1.68-3.6,4.1-6.61,7.25-9.01c3.15-2.41,6.48-3.25,10.24-4.28"/>
<path class="st0" d="M488.78,346.17l2.07-3.59l12.89-24.28l1.37-2.72c0.4-0.8,0.96-1.94,1.67-3.44c2.92,0.03,5.06,0.05,6.41,0.05
	c2.34,0,4.51-0.02,6.5-0.05l3.64,10.39l7.4,19.99l1.45,3.64c-2.88-0.03-4.62-0.05-5.24-0.05c-1.4,0-3.45,0.02-6.16,0.05
	c-0.73-2.74-1.78-5.97-3.16-9.67h-12.55c-1.44,2.93-2.94,6.15-4.48,9.67c-3.09-0.03-4.99-0.05-5.69-0.05
	C493.63,346.12,491.59,346.14,488.78,346.17z M508.08,329.25h7.74c-1.92-5.86-2.98-9.08-3.16-9.68c-1.1,2.44-2.03,4.44-2.79,6
	L508.08,329.25z"/>
<path class="st0" d="M534.74,346.17c0.32-2.92,0.57-5.56,0.75-7.9c0.18-2.34,0.34-5.06,0.47-8.15c0.13-3.09,0.23-6.35,0.3-9.78
	c0.07-3.43,0.1-6.16,0.1-8.19c2.08,0.05,3.75,0.07,5.03,0.07c1.33,0,2.95-0.04,4.86-0.11c1.91-0.07,3.77-0.11,5.58-0.11
	c2.13,0,4.02,0.08,5.68,0.25c1.25,0.12,2.38,0.36,3.4,0.72c1.02,0.37,1.88,0.81,2.58,1.33s1.28,1.11,1.74,1.76s0.83,1.41,1.08,2.28
	c0.26,0.87,0.39,1.81,0.39,2.8c0,1.11-0.14,2.16-0.42,3.13c-0.28,0.97-0.73,1.89-1.33,2.74c-0.61,0.86-1.37,1.6-2.29,2.22
	s-2.21,1.26-3.88,1.91l1.3,3.17c0.37,0.88,0.76,1.78,1.17,2.69l3.34,7.3c0.15,0.32,0.42,0.94,0.8,1.87
	c-2.74-0.03-4.58-0.05-5.53-0.05c-1.2,0-3.16,0.02-5.88,0.05c-0.27-0.86-0.75-2.47-1.45-4.81c-0.28-0.98-0.52-1.74-0.72-2.27
	c-0.4-1.18-0.99-2.83-1.77-4.96l-2.57-7.05c0.9,0.17,1.78,0.25,2.64,0.25c1.21,0,2.31-0.18,3.3-0.55c0.99-0.37,1.74-0.93,2.24-1.7
	c0.51-0.76,0.76-1.57,0.76-2.42c0-0.71-0.19-1.34-0.57-1.88c-0.38-0.54-0.98-0.94-1.81-1.21c-0.82-0.27-2.09-0.4-3.8-0.4
	c-0.58,0-1.18,0.01-1.81,0.04s-1.35,0.05-2.18,0.06c-0.21,3.41-0.4,7.56-0.57,12.46c-0.16,4.9-0.27,9.71-0.32,14.43
	c-2.78-0.03-4.58-0.05-5.42-0.05C538.99,346.12,537.26,346.14,534.74,346.17z"/>
<path class="st0" d="M570.31,346.17c0.42-3.92,0.72-7.12,0.9-9.6c0.35-4.52,0.61-9.01,0.79-13.47c0.18-4.46,0.26-8.11,0.26-10.96
	c2.26,0.03,4.26,0.05,6,0.05c1.18,0,2.87-0.02,5.08-0.05l-0.6,9.02L582,335.28l-0.1,3.46c2.86,0.05,4.72,0.07,5.59,0.07
	c4.37,0,7.68-0.06,9.92-0.17l-0.55,7.53c-4.37-0.03-8.53-0.05-12.49-0.05C579.02,346.12,574.34,346.14,570.31,346.17z"/>
<path class="st0" d="M599.21,346.17l2.07-3.59l12.89-24.28l1.37-2.72c0.4-0.8,0.96-1.94,1.67-3.44c2.92,0.03,5.06,0.05,6.41,0.05
	c2.34,0,4.51-0.02,6.5-0.05l3.64,10.39l7.4,19.99l1.45,3.64c-2.88-0.03-4.62-0.05-5.24-0.05c-1.4,0-3.45,0.02-6.16,0.05
	c-0.73-2.74-1.78-5.97-3.16-9.67h-12.55c-1.44,2.93-2.94,6.15-4.48,9.67c-3.09-0.03-4.99-0.05-5.69-0.05
	C604.05,346.12,602.02,346.14,599.21,346.17z M618.5,329.25h7.74c-1.92-5.86-2.98-9.08-3.16-9.68c-1.1,2.44-2.03,4.44-2.79,6
	L618.5,329.25z"/>
<path class="st0" d="M309.39,327.48c-0.36-0.75-0.88-1.57-1.55-2.47c-0.67-0.9-1.47-1.81-2.39-2.73c-0.92-0.92-1.78-1.71-2.58-2.36
	l-2.69-2.13c-1.92-1.5-3.33-2.62-4.23-3.38c-0.9-0.76-1.62-1.46-2.17-2.09c-0.76-0.89-1.17-1.31-1.12-1.66
	c0.15-1.02,2.81-1.43,5.13-1.77c2.61-0.38,4.32-0.38,6.97-0.54c1.51-0.09,3.39-0.23,5.55-0.46l319.82-12.8l-320.76,1.35v0
	l-25.51,0.11c-0.05,0.02-0.11,0.03-0.17,0.04c-0.08,0.03-0.16,0.05-0.25,0.07c-1.7,0.86-3.03,1.96-4.06,3.19
	c-1.07,1.27-1.88,2.64-2.41,4.09c-0.54,1.46-0.8,2.95-0.8,4.47c0,1.27,0.17,2.47,0.51,3.61c0.34,1.13,0.87,2.25,1.61,3.35
	c0.74,1.1,1.77,2.28,3.09,3.55c0.65,0.62,1.8,1.63,3.45,3.03l7.04,6.13c0.65,0.57,1.15,1.1,1.5,1.59c0.35,0.49,0.59,0.92,0.71,1.31
	c0.12,0.39,0.19,0.79,0.19,1.22c0,1.25-0.64,2.19-1.93,2.82c-1.29,0.64-3.02,0.95-5.19,0.95c-1.65,0-3.57-0.24-5.75-0.73
	c-2.18-0.49-4.68-1.35-7.47-2.6c0.42,3.19,0.8,7.44,1.12,12.75c6.16,1.17,11.25,1.76,15.29,1.76c2.62,0,5.1-0.26,7.46-0.79
	s4.52-1.44,6.49-2.75c1.97-1.31,3.49-2.98,4.56-5.01c1.07-2.03,1.61-4.17,1.61-6.41c0-0.87-0.09-1.69-0.26-2.45
	C310.02,328.98,309.75,328.22,309.39,327.48z"/>
<path class="st0" d="M181.2,287.28c5.77,2.72,12.05,5.39,18.83,7.9c12.25,4.53,23.75,7.64,34.05,9.79l2.76,6.12
	c-4.89-0.74-10.16-1.85-15.72-3.48C203.75,302.51,190.43,294.31,181.2,287.28z"/>
<path class="st0" d="M161.06,268.67c0,0,36,16.56,66.78,22.5l4.14,8.73C231.98,299.9,177.08,283.25,161.06,268.67z"/>
<path class="st0" d="M131.36,229.68c0,0,30.24,25.6,110.16,47.2l32.4,47.52l-18-7.92l-19.08-32.21
	C236.84,284.28,143.84,257.84,131.36,229.68z"/>
</svg>
